<?xml version="1.0" encoding="UTF-8"?>
<svg id="Layer_1" data-name="Layer 1" xmlns="http://www.w3.org/2000/svg" xmlns:xlink="http://www.w3.org/1999/xlink" viewBox="0 0 50.66 50.66">
  <defs>
    <style>
      .cls-1, .cls-2, .cls-3 {
        fill: none;
      }

      .cls-2, .cls-4, .cls-3 {
        stroke: #b90f14;
        stroke-miterlimit: 10;
      }

      .cls-4, .cls-5 {
        fill: #b90f14;
      }

      .cls-6 {
        clip-path: url(#clippath-1);
      }

      .cls-3 {
        stroke-width: 8px;
      }

      .cls-7 {
        clip-path: url(#clippath);
      }
    </style>
    <clipPath id="clippath">
      <rect class="cls-1" x="12.88" y="11.18" width="12.29" height="28.65"/>
    </clipPath>
    <clipPath id="clippath-1">
      <rect class="cls-1" x="25.16" y="11.18" width="12.29" height="28.65"/>
    </clipPath>
  </defs>
  <g>
    <g id="_Mirror_Repeat_" data-name="&amp;lt;Mirror Repeat&amp;gt;">
      <g class="cls-7">
        <g>
          <g>
            <path class="cls-5" d="M14.93,15.02c-.16-1.09.61-1.98,1.71-1.98l18.57.03c1.1,0,1.87.89,1.71,1.98l-3.31,22.29c-.16,1.09-1.19,1.98-2.29,1.98h-10.77c-1.1,0-2.13-.89-2.29-1.98l-3.32-22.32Z"/>
            <path class="cls-2" d="M14.93,15.02c-.16-1.09.61-1.98,1.71-1.98l18.57.03c1.1,0,1.87.89,1.71,1.98l-3.31,22.29c-.16,1.09-1.19,1.98-2.29,1.98h-10.77c-1.1,0-2.13-.89-2.29-1.98l-3.32-22.32Z"/>
          </g>
          <rect class="cls-4" x="13.38" y="11.68" width="25.1" height="2.74" rx="1.37" ry="1.37"/>
        </g>
      </g>
    </g>
    <g id="_Mirror_Repeat_-2" data-name="&amp;lt;Mirror Repeat&amp;gt;">
      <g class="cls-6">
        <g>
          <g>
            <path class="cls-5" d="M35.39,15.02c.16-1.09-.61-1.98-1.71-1.98l-18.57.03c-1.1,0-1.87.89-1.71,1.98l3.31,22.29c.16,1.09,1.19,1.98,2.29,1.98h10.77c1.1,0,2.13-.89,2.29-1.98l3.32-22.32Z"/>
            <path class="cls-2" d="M35.39,15.02c.16-1.09-.61-1.98-1.71-1.98l-18.57.03c-1.1,0-1.87.89-1.71,1.98l3.31,22.29c.16,1.09,1.19,1.98,2.29,1.98h10.77c1.1,0,2.13-.89,2.29-1.98l3.32-22.32Z"/>
          </g>
          <rect class="cls-4" x="11.85" y="11.68" width="25.1" height="2.74" rx="1.37" ry="1.37" transform="translate(48.8 26.09) rotate(-180)"/>
        </g>
      </g>
    </g>
  </g>
  <line class="cls-3" x1="25.16" y1="11.18" x2="25.16" y2="39.82"/>
</svg>