<?xml version="1.0" encoding="UTF-8"?>
<svg id="Layer_2" data-name="Layer 2" xmlns="http://www.w3.org/2000/svg" xmlns:xlink="http://www.w3.org/1999/xlink" viewBox="0 0 524.91 51">
  <defs>
    <style>
      .cls-1, .cls-2, .cls-3 {
        fill: none;
      }

      .cls-2 {
        stroke-width: 5px;
      }

      .cls-2, .cls-3, .cls-4 {
        stroke: #fff;
        stroke-miterlimit: 10;
      }

      .cls-5 {
        clip-path: url(#clippath-17);
      }

      .cls-6 {
        clip-path: url(#clippath-19);
      }

      .cls-7 {
        clip-path: url(#clippath-11);
      }

      .cls-8 {
        clip-path: url(#clippath-16);
      }

      .cls-9 {
        clip-path: url(#clippath-18);
      }

      .cls-10 {
        clip-path: url(#clippath-10);
      }

      .cls-11 {
        clip-path: url(#clippath-15);
      }

      .cls-12 {
        clip-path: url(#clippath-13);
      }

      .cls-13 {
        clip-path: url(#clippath-14);
      }

      .cls-14 {
        clip-path: url(#clippath-12);
      }

      .cls-15 {
        clip-path: url(#clippath-31);
      }

      .cls-16 {
        clip-path: url(#clippath-32);
      }

      .cls-17 {
        clip-path: url(#clippath-33);
      }

      .cls-18 {
        clip-path: url(#clippath-34);
      }

      .cls-19 {
        clip-path: url(#clippath-35);
      }

      .cls-20 {
        clip-path: url(#clippath-30);
      }

      .cls-21 {
        clip-path: url(#clippath-36);
      }

      .cls-22 {
        clip-path: url(#clippath-37);
      }

      .cls-23 {
        clip-path: url(#clippath-27);
      }

      .cls-24 {
        clip-path: url(#clippath-29);
      }

      .cls-25 {
        clip-path: url(#clippath-26);
      }

      .cls-26 {
        clip-path: url(#clippath-28);
      }

      .cls-27 {
        clip-path: url(#clippath-20);
      }

      .cls-28 {
        clip-path: url(#clippath-21);
      }

      .cls-29 {
        clip-path: url(#clippath-22);
      }

      .cls-30 {
        clip-path: url(#clippath-23);
      }

      .cls-31 {
        clip-path: url(#clippath-24);
      }

      .cls-32 {
        clip-path: url(#clippath-25);
      }

      .cls-33 {
        clip-path: url(#clippath-1);
      }

      .cls-34 {
        clip-path: url(#clippath-3);
      }

      .cls-35 {
        clip-path: url(#clippath-4);
      }

      .cls-36 {
        clip-path: url(#clippath-2);
      }

      .cls-37 {
        clip-path: url(#clippath-7);
      }

      .cls-38 {
        clip-path: url(#clippath-6);
      }

      .cls-39 {
        clip-path: url(#clippath-9);
      }

      .cls-40 {
        clip-path: url(#clippath-8);
      }

      .cls-41 {
        clip-path: url(#clippath-5);
      }

      .cls-42, .cls-4 {
        fill: #fff;
      }

      .cls-43 {
        clip-path: url(#clippath);
      }
    </style>
    <clipPath id="clippath">
      <rect class="cls-1" x="84.41" y="11.18" width="12.29" height="28.65"/>
    </clipPath>
    <clipPath id="clippath-1">
      <rect class="cls-1" x="96.69" y="11.18" width="12.29" height="28.65"/>
    </clipPath>
    <clipPath id="clippath-2">
      <rect class="cls-1" x="124.32" y="11.18" width="12.29" height="28.65"/>
    </clipPath>
    <clipPath id="clippath-3">
      <rect class="cls-1" x="112.03" y="11.18" width="12.29" height="28.65"/>
    </clipPath>
    <clipPath id="clippath-4">
      <rect class="cls-1" x="29.15" y="11.18" width="12.29" height="28.65"/>
    </clipPath>
    <clipPath id="clippath-5">
      <rect class="cls-1" x="41.44" y="11.18" width="12.29" height="28.65"/>
    </clipPath>
    <clipPath id="clippath-6">
      <rect class="cls-1" x="69.07" y="11.18" width="12.29" height="28.65"/>
    </clipPath>
    <clipPath id="clippath-7">
      <rect class="cls-1" x="56.78" y="11.18" width="12.29" height="28.65"/>
    </clipPath>
    <clipPath id="clippath-8">
      <rect class="cls-1" x="139.66" y="11.18" width="12.29" height="28.65"/>
    </clipPath>
    <clipPath id="clippath-9">
      <rect class="cls-1" x="151.95" y="11.18" width="12.29" height="28.65"/>
    </clipPath>
    <clipPath id="clippath-10">
      <rect class="cls-1" x="179.57" y="11.18" width="12.29" height="28.65"/>
    </clipPath>
    <clipPath id="clippath-11">
      <rect class="cls-1" x="167.29" y="11.18" width="12.29" height="28.65"/>
    </clipPath>
    <clipPath id="clippath-12">
      <rect class="cls-1" x="194.91" y="11.18" width="12.29" height="28.65"/>
    </clipPath>
    <clipPath id="clippath-13">
      <rect class="cls-1" x="207.2" y="11.18" width="12.29" height="28.65"/>
    </clipPath>
    <clipPath id="clippath-14">
      <rect class="cls-1" x="234.83" y="11.18" width="12.29" height="28.65"/>
    </clipPath>
    <clipPath id="clippath-15">
      <rect class="cls-1" x="222.54" y="11.18" width="12.29" height="28.65"/>
    </clipPath>
    <clipPath id="clippath-16">
      <rect class="cls-1" x="250.17" y="11.18" width="12.29" height="28.65"/>
    </clipPath>
    <clipPath id="clippath-17">
      <rect class="cls-1" x="262.46" y="11.18" width="12.29" height="28.65"/>
    </clipPath>
    <clipPath id="clippath-18">
      <rect class="cls-1" x="290.08" y="11.18" width="12.29" height="28.65"/>
    </clipPath>
    <clipPath id="clippath-19">
      <rect class="cls-1" x="277.8" y="11.18" width="12.29" height="28.65"/>
    </clipPath>
    <clipPath id="clippath-20">
      <rect class="cls-1" x="360.68" y="11.18" width="12.29" height="28.65"/>
    </clipPath>
    <clipPath id="clippath-21">
      <rect class="cls-1" x="372.96" y="11.18" width="12.29" height="28.65"/>
    </clipPath>
    <clipPath id="clippath-22">
      <rect class="cls-1" x="400.59" y="11.18" width="12.29" height="28.65"/>
    </clipPath>
    <clipPath id="clippath-23">
      <rect class="cls-1" x="388.3" y="11.18" width="12.29" height="28.65"/>
    </clipPath>
    <clipPath id="clippath-24">
      <rect class="cls-1" x="415.93" y="11.18" width="12.29" height="28.65"/>
    </clipPath>
    <clipPath id="clippath-25">
      <rect class="cls-1" x="428.22" y="11.18" width="12.29" height="28.65"/>
    </clipPath>
    <clipPath id="clippath-26">
      <rect class="cls-1" x="455.84" y="11.18" width="12.29" height="28.65"/>
    </clipPath>
    <clipPath id="clippath-27">
      <rect class="cls-1" x="443.56" y="11.18" width="12.29" height="28.65"/>
    </clipPath>
    <clipPath id="clippath-28">
      <rect class="cls-1" x="305.42" y="11.18" width="12.29" height="28.65"/>
    </clipPath>
    <clipPath id="clippath-29">
      <rect class="cls-1" x="317.71" y="11.18" width="12.29" height="28.65"/>
    </clipPath>
    <clipPath id="clippath-30">
      <rect class="cls-1" x="345.34" y="11.18" width="12.29" height="28.65"/>
    </clipPath>
    <clipPath id="clippath-31">
      <rect class="cls-1" x="333.05" y="11.18" width="12.29" height="28.65"/>
    </clipPath>
    <clipPath id="clippath-32">
      <rect class="cls-1" x="471.18" y="11.18" width="12.29" height="28.65"/>
    </clipPath>
    <clipPath id="clippath-33">
      <rect class="cls-1" x="483.47" y="11.18" width="12.29" height="28.65"/>
    </clipPath>
    <clipPath id="clippath-34">
      <rect class="cls-1" x="511.1" y="11.18" width="12.29" height="28.65"/>
    </clipPath>
    <clipPath id="clippath-35">
      <rect class="cls-1" x="498.81" y="11.18" width="12.29" height="28.65"/>
    </clipPath>
    <clipPath id="clippath-36">
      <rect class="cls-1" x="13.81" y="11.18" width="12.29" height="28.65"/>
    </clipPath>
    <clipPath id="clippath-37">
      <rect class="cls-1" x="1.53" y="11.18" width="12.29" height="28.65"/>
    </clipPath>
  </defs>
  <g>
    <line class="cls-2" x1="96.86" y1="11.18" x2="96.86" y2="39.82"/>
    <g>
      <g>
        <g id="_Mirror_Repeat_" data-name="&amp;lt;Mirror Repeat&amp;gt;">
          <g class="cls-43">
            <g>
              <g>
                <path class="cls-42" d="M86.46,15.02c-.16-1.09.61-1.98,1.71-1.98l18.57.03c1.1,0,1.87.89,1.71,1.98l-3.31,22.29c-.16,1.09-1.19,1.98-2.29,1.98h-10.77c-1.1,0-2.13-.89-2.29-1.98l-3.32-22.32Z"/>
                <path class="cls-3" d="M86.46,15.02c-.16-1.09.61-1.98,1.71-1.98l18.57.03c1.1,0,1.87.89,1.71,1.98l-3.31,22.29c-.16,1.09-1.19,1.98-2.29,1.98h-10.77c-1.1,0-2.13-.89-2.29-1.98l-3.32-22.32Z"/>
              </g>
              <rect class="cls-4" x="84.91" y="11.68" width="25.1" height="2.74" rx="1.37" ry="1.37"/>
            </g>
          </g>
        </g>
        <g id="_Mirror_Repeat_-2" data-name="&amp;lt;Mirror Repeat&amp;gt;">
          <g class="cls-33">
            <g>
              <g>
                <path class="cls-42" d="M106.92,15.02c.16-1.09-.61-1.98-1.71-1.98l-18.57.03c-1.1,0-1.87.89-1.71,1.98l3.31,22.29c.16,1.09,1.19,1.98,2.29,1.98h10.77c1.1,0,2.13-.89,2.29-1.98l3.32-22.32Z"/>
                <path class="cls-3" d="M106.92,15.02c.16-1.09-.61-1.98-1.71-1.98l-18.57.03c-1.1,0-1.87.89-1.71,1.98l3.31,22.29c.16,1.09,1.19,1.98,2.29,1.98h10.77c1.1,0,2.13-.89,2.29-1.98l3.32-22.32Z"/>
              </g>
              <rect class="cls-4" x="83.38" y="11.68" width="25.1" height="2.74" rx="1.37" ry="1.37" transform="translate(191.86 26.09) rotate(-180)"/>
            </g>
          </g>
        </g>
      </g>
      <g>
        <g>
          <g id="_Mirror_Repeat_-3" data-name="&amp;lt;Mirror Repeat&amp;gt;">
            <g class="cls-36">
              <g>
                <g>
                  <path class="cls-42" d="M134.55,35.98c.16,1.09-.61,1.98-1.71,1.98l-18.57-.03c-1.1,0-1.87-.89-1.71-1.98l3.31-22.29c.16-1.09,1.19-1.98,2.29-1.98h10.77c1.1,0,2.13.89,2.29,1.98l3.32,22.32Z"/>
                  <path class="cls-3" d="M134.55,35.98c.16,1.09-.61,1.98-1.71,1.98l-18.57-.03c-1.1,0-1.87-.89-1.71-1.98l3.31-22.29c.16-1.09,1.19-1.98,2.29-1.98h10.77c1.1,0,2.13.89,2.29,1.98l3.32,22.32Z"/>
                </g>
                <rect class="cls-4" x="111.01" y="36.59" width="25.1" height="2.74" rx="1.37" ry="1.37" transform="translate(247.12 75.91) rotate(180)"/>
              </g>
            </g>
          </g>
          <g id="_Mirror_Repeat_-4" data-name="&amp;lt;Mirror Repeat&amp;gt;">
            <g class="cls-34">
              <g>
                <g>
                  <path class="cls-42" d="M114.09,35.98c-.16,1.09.61,1.98,1.71,1.98l18.57-.03c1.1,0,1.87-.89,1.71-1.98l-3.31-22.29c-.16-1.09-1.19-1.98-2.29-1.98h-10.77c-1.1,0-2.13.89-2.29,1.98l-3.32,22.32Z"/>
                  <path class="cls-3" d="M114.09,35.98c-.16,1.09.61,1.98,1.71,1.98l18.57-.03c1.1,0,1.87-.89,1.71-1.98l-3.31-22.29c-.16-1.09-1.19-1.98-2.29-1.98h-10.77c-1.1,0-2.13.89-2.29,1.98l-3.32,22.32Z"/>
                </g>
                <rect class="cls-4" x="112.53" y="36.59" width="25.1" height="2.74" rx="1.37" ry="1.37"/>
              </g>
            </g>
          </g>
        </g>
        <line class="cls-2" x1="124.15" y1="39.82" x2="124.15" y2="11.18"/>
      </g>
    </g>
  </g>
  <g>
    <g>
      <g>
        <line class="cls-2" x1="41.61" y1="11.18" x2="41.61" y2="39.82"/>
        <g>
          <g>
            <g id="_Mirror_Repeat_-5" data-name="&amp;lt;Mirror Repeat&amp;gt;">
              <g class="cls-35">
                <g>
                  <g>
                    <path class="cls-42" d="M31.21,15.02c-.16-1.09.61-1.98,1.71-1.98l18.57.03c1.1,0,1.87.89,1.71,1.98l-3.31,22.29c-.16,1.09-1.19,1.98-2.29,1.98h-10.77c-1.1,0-2.13-.89-2.29-1.98l-3.32-22.32Z"/>
                    <path class="cls-3" d="M31.21,15.02c-.16-1.09.61-1.98,1.71-1.98l18.57.03c1.1,0,1.87.89,1.71,1.98l-3.31,22.29c-.16,1.09-1.19,1.98-2.29,1.98h-10.77c-1.1,0-2.13-.89-2.29-1.98l-3.32-22.32Z"/>
                  </g>
                  <rect class="cls-4" x="29.65" y="11.68" width="25.1" height="2.74" rx="1.37" ry="1.37"/>
                </g>
              </g>
            </g>
            <g id="_Mirror_Repeat_-6" data-name="&amp;lt;Mirror Repeat&amp;gt;">
              <g class="cls-41">
                <g>
                  <g>
                    <path class="cls-42" d="M51.67,15.02c.16-1.09-.61-1.98-1.71-1.98l-18.57.03c-1.1,0-1.87.89-1.71,1.98l3.31,22.29c.16,1.09,1.19,1.98,2.29,1.98h10.77c1.1,0,2.13-.89,2.29-1.98l3.32-22.32Z"/>
                    <path class="cls-3" d="M51.67,15.02c.16-1.09-.61-1.98-1.71-1.98l-18.57.03c-1.1,0-1.87.89-1.71,1.98l3.31,22.29c.16,1.09,1.19,1.98,2.29,1.98h10.77c1.1,0,2.13-.89,2.29-1.98l3.32-22.32Z"/>
                  </g>
                  <rect class="cls-4" x="28.13" y="11.68" width="25.1" height="2.74" rx="1.37" ry="1.37" transform="translate(81.35 26.09) rotate(-180)"/>
                </g>
              </g>
            </g>
          </g>
          <g>
            <g>
              <g id="_Mirror_Repeat_-7" data-name="&amp;lt;Mirror Repeat&amp;gt;">
                <g class="cls-38">
                  <g>
                    <g>
                      <path class="cls-42" d="M79.3,35.98c.16,1.09-.61,1.98-1.71,1.98l-18.57-.03c-1.1,0-1.87-.89-1.71-1.98l3.31-22.29c.16-1.09,1.19-1.98,2.29-1.98h10.77c1.1,0,2.13.89,2.29,1.98l3.32,22.32Z"/>
                      <path class="cls-3" d="M79.3,35.98c.16,1.09-.61,1.98-1.71,1.98l-18.57-.03c-1.1,0-1.87-.89-1.71-1.98l3.31-22.29c.16-1.09,1.19-1.98,2.29-1.98h10.77c1.1,0,2.13.89,2.29,1.98l3.32,22.32Z"/>
                    </g>
                    <rect class="cls-4" x="55.75" y="36.59" width="25.1" height="2.74" rx="1.37" ry="1.37" transform="translate(136.61 75.91) rotate(180)"/>
                  </g>
                </g>
              </g>
              <g id="_Mirror_Repeat_-8" data-name="&amp;lt;Mirror Repeat&amp;gt;">
                <g class="cls-37">
                  <g>
                    <g>
                      <path class="cls-42" d="M58.84,35.98c-.16,1.09.61,1.98,1.71,1.98l18.57-.03c1.1,0,1.87-.89,1.71-1.98l-3.31-22.29c-.16-1.09-1.19-1.98-2.29-1.98h-10.77c-1.1,0-2.13.89-2.29,1.98l-3.32,22.32Z"/>
                      <path class="cls-3" d="M58.84,35.98c-.16,1.09.61,1.98,1.71,1.98l18.57-.03c1.1,0,1.87-.89,1.71-1.98l-3.31-22.29c-.16-1.09-1.19-1.98-2.29-1.98h-10.77c-1.1,0-2.13.89-2.29,1.98l-3.32,22.32Z"/>
                    </g>
                    <rect class="cls-4" x="57.28" y="36.59" width="25.1" height="2.74" rx="1.37" ry="1.37"/>
                  </g>
                </g>
              </g>
            </g>
            <line class="cls-2" x1="68.9" y1="39.82" x2="68.9" y2="11.18"/>
          </g>
        </g>
      </g>
      <g>
        <line class="cls-2" x1="152.12" y1="11.18" x2="152.12" y2="39.82"/>
        <g>
          <g>
            <g id="_Mirror_Repeat_-9" data-name="&amp;lt;Mirror Repeat&amp;gt;">
              <g class="cls-40">
                <g>
                  <g>
                    <path class="cls-42" d="M141.72,15.02c-.16-1.09.61-1.98,1.71-1.98l18.57.03c1.1,0,1.87.89,1.71,1.98l-3.31,22.29c-.16,1.09-1.19,1.98-2.29,1.98h-10.77c-1.1,0-2.13-.89-2.29-1.98l-3.32-22.32Z"/>
                    <path class="cls-3" d="M141.72,15.02c-.16-1.09.61-1.98,1.71-1.98l18.57.03c1.1,0,1.87.89,1.71,1.98l-3.31,22.29c-.16,1.09-1.19,1.98-2.29,1.98h-10.77c-1.1,0-2.13-.89-2.29-1.98l-3.32-22.32Z"/>
                  </g>
                  <rect class="cls-4" x="140.16" y="11.68" width="25.1" height="2.74" rx="1.37" ry="1.37"/>
                </g>
              </g>
            </g>
            <g id="_Mirror_Repeat_-10" data-name="&amp;lt;Mirror Repeat&amp;gt;">
              <g class="cls-39">
                <g>
                  <g>
                    <path class="cls-42" d="M162.18,15.02c.16-1.09-.61-1.98-1.71-1.98l-18.57.03c-1.1,0-1.87.89-1.71,1.98l3.31,22.29c.16,1.09,1.19,1.98,2.29,1.98h10.77c1.1,0,2.13-.89,2.29-1.98l3.32-22.32Z"/>
                    <path class="cls-3" d="M162.18,15.02c.16-1.09-.61-1.98-1.71-1.98l-18.57.03c-1.1,0-1.87.89-1.71,1.98l3.31,22.29c.16,1.09,1.19,1.98,2.29,1.98h10.77c1.1,0,2.13-.89,2.29-1.98l3.32-22.32Z"/>
                  </g>
                  <rect class="cls-4" x="138.63" y="11.68" width="25.1" height="2.74" rx="1.37" ry="1.37" transform="translate(302.37 26.09) rotate(180)"/>
                </g>
              </g>
            </g>
          </g>
          <g>
            <g>
              <g id="_Mirror_Repeat_-11" data-name="&amp;lt;Mirror Repeat&amp;gt;">
                <g class="cls-10">
                  <g>
                    <g>
                      <path class="cls-42" d="M189.8,35.98c.16,1.09-.61,1.98-1.71,1.98l-18.57-.03c-1.1,0-1.87-.89-1.71-1.98l3.31-22.29c.16-1.09,1.19-1.98,2.29-1.98h10.77c1.1,0,2.13.89,2.29,1.98l3.32,22.32Z"/>
                      <path class="cls-3" d="M189.8,35.98c.16,1.09-.61,1.98-1.71,1.98l-18.57-.03c-1.1,0-1.87-.89-1.71-1.98l3.31-22.29c.16-1.09,1.19-1.98,2.29-1.98h10.77c1.1,0,2.13.89,2.29,1.98l3.32,22.32Z"/>
                    </g>
                    <rect class="cls-4" x="166.26" y="36.59" width="25.1" height="2.74" rx="1.37" ry="1.37" transform="translate(357.62 75.91) rotate(180)"/>
                  </g>
                </g>
              </g>
              <g id="_Mirror_Repeat_-12" data-name="&amp;lt;Mirror Repeat&amp;gt;">
                <g class="cls-7">
                  <g>
                    <g>
                      <path class="cls-42" d="M169.35,35.98c-.16,1.09.61,1.98,1.71,1.98l18.57-.03c1.1,0,1.87-.89,1.71-1.98l-3.31-22.29c-.16-1.09-1.19-1.98-2.29-1.98h-10.77c-1.1,0-2.13.89-2.29,1.98l-3.32,22.32Z"/>
                      <path class="cls-3" d="M169.35,35.98c-.16,1.09.61,1.98,1.71,1.98l18.57-.03c1.1,0,1.87-.89,1.71-1.98l-3.31-22.29c-.16-1.09-1.19-1.98-2.29-1.98h-10.77c-1.1,0-2.13.89-2.29,1.98l-3.32,22.32Z"/>
                    </g>
                    <rect class="cls-4" x="167.79" y="36.59" width="25.1" height="2.74" rx="1.37" ry="1.37"/>
                  </g>
                </g>
              </g>
            </g>
            <line class="cls-2" x1="179.41" y1="39.82" x2="179.41" y2="11.18"/>
          </g>
        </g>
      </g>
    </g>
    <g>
      <line class="cls-2" x1="207.37" y1="11.18" x2="207.37" y2="39.82"/>
      <g>
        <g>
          <g id="_Mirror_Repeat_-13" data-name="&amp;lt;Mirror Repeat&amp;gt;">
            <g class="cls-14">
              <g>
                <g>
                  <path class="cls-42" d="M196.97,15.02c-.16-1.09.61-1.98,1.71-1.98l18.57.03c1.1,0,1.87.89,1.71,1.98l-3.31,22.29c-.16,1.09-1.19,1.98-2.29,1.98h-10.77c-1.1,0-2.13-.89-2.29-1.98l-3.32-22.32Z"/>
                  <path class="cls-3" d="M196.97,15.02c-.16-1.09.61-1.98,1.71-1.98l18.57.03c1.1,0,1.87.89,1.71,1.98l-3.31,22.29c-.16,1.09-1.19,1.98-2.29,1.98h-10.77c-1.1,0-2.13-.89-2.29-1.98l-3.32-22.32Z"/>
                </g>
                <rect class="cls-4" x="195.41" y="11.68" width="25.1" height="2.74" rx="1.37" ry="1.37"/>
              </g>
            </g>
          </g>
          <g id="_Mirror_Repeat_-14" data-name="&amp;lt;Mirror Repeat&amp;gt;">
            <g class="cls-12">
              <g>
                <g>
                  <path class="cls-42" d="M217.43,15.02c.16-1.09-.61-1.98-1.71-1.98l-18.57.03c-1.1,0-1.87.89-1.71,1.98l3.31,22.29c.16,1.09,1.19,1.98,2.29,1.98h10.77c1.1,0,2.13-.89,2.29-1.98l3.32-22.32Z"/>
                  <path class="cls-3" d="M217.43,15.02c.16-1.09-.61-1.98-1.71-1.98l-18.57.03c-1.1,0-1.87.89-1.71,1.98l3.31,22.29c.16,1.09,1.19,1.98,2.29,1.98h10.77c1.1,0,2.13-.89,2.29-1.98l3.32-22.32Z"/>
                </g>
                <rect class="cls-4" x="193.89" y="11.68" width="25.1" height="2.74" rx="1.37" ry="1.37" transform="translate(412.88 26.09) rotate(180)"/>
              </g>
            </g>
          </g>
        </g>
        <g>
          <g>
            <g id="_Mirror_Repeat_-15" data-name="&amp;lt;Mirror Repeat&amp;gt;">
              <g class="cls-13">
                <g>
                  <g>
                    <path class="cls-42" d="M245.06,35.98c.16,1.09-.61,1.98-1.71,1.98l-18.57-.03c-1.1,0-1.87-.89-1.71-1.98l3.31-22.29c.16-1.09,1.19-1.98,2.29-1.98h10.77c1.1,0,2.13.89,2.29,1.98l3.32,22.32Z"/>
                    <path class="cls-3" d="M245.06,35.98c.16,1.09-.61,1.98-1.71,1.98l-18.57-.03c-1.1,0-1.87-.89-1.71-1.98l3.31-22.29c.16-1.09,1.19-1.98,2.29-1.98h10.77c1.1,0,2.13.89,2.29,1.98l3.32,22.32Z"/>
                  </g>
                  <rect class="cls-4" x="221.52" y="36.59" width="25.1" height="2.74" rx="1.37" ry="1.37" transform="translate(468.13 75.91) rotate(-180)"/>
                </g>
              </g>
            </g>
            <g id="_Mirror_Repeat_-16" data-name="&amp;lt;Mirror Repeat&amp;gt;">
              <g class="cls-11">
                <g>
                  <g>
                    <path class="cls-42" d="M224.6,35.98c-.16,1.09.61,1.98,1.71,1.98l18.57-.03c1.1,0,1.87-.89,1.71-1.98l-3.31-22.29c-.16-1.09-1.19-1.98-2.29-1.98h-10.77c-1.1,0-2.13.89-2.29,1.98l-3.32,22.32Z"/>
                    <path class="cls-3" d="M224.6,35.98c-.16,1.09.61,1.98,1.71,1.98l18.57-.03c1.1,0,1.87-.89,1.71-1.98l-3.31-22.29c-.16-1.09-1.19-1.98-2.29-1.98h-10.77c-1.1,0-2.13.89-2.29,1.98l-3.32,22.32Z"/>
                  </g>
                  <rect class="cls-4" x="223.04" y="36.59" width="25.1" height="2.74" rx="1.37" ry="1.37"/>
                </g>
              </g>
            </g>
          </g>
          <line class="cls-2" x1="234.66" y1="39.82" x2="234.66" y2="11.18"/>
        </g>
      </g>
    </g>
    <g>
      <line class="cls-2" x1="262.62" y1="11.18" x2="262.62" y2="39.82"/>
      <g>
        <g>
          <g id="_Mirror_Repeat_-17" data-name="&amp;lt;Mirror Repeat&amp;gt;">
            <g class="cls-8">
              <g>
                <g>
                  <path class="cls-42" d="M252.23,15.02c-.16-1.09.61-1.98,1.71-1.98l18.57.03c1.1,0,1.87.89,1.71,1.98l-3.31,22.29c-.16,1.09-1.19,1.98-2.29,1.98h-10.77c-1.1,0-2.13-.89-2.29-1.98l-3.32-22.32Z"/>
                  <path class="cls-3" d="M252.23,15.02c-.16-1.09.61-1.98,1.71-1.98l18.57.03c1.1,0,1.87.89,1.71,1.98l-3.31,22.29c-.16,1.09-1.19,1.98-2.29,1.98h-10.77c-1.1,0-2.13-.89-2.29-1.98l-3.32-22.32Z"/>
                </g>
                <rect class="cls-4" x="250.67" y="11.68" width="25.1" height="2.74" rx="1.37" ry="1.37"/>
              </g>
            </g>
          </g>
          <g id="_Mirror_Repeat_-18" data-name="&amp;lt;Mirror Repeat&amp;gt;">
            <g class="cls-5">
              <g>
                <g>
                  <path class="cls-42" d="M272.68,15.02c.16-1.09-.61-1.98-1.71-1.98l-18.57.03c-1.1,0-1.87.89-1.71,1.98l3.31,22.29c.16,1.09,1.19,1.98,2.29,1.98h10.77c1.1,0,2.13-.89,2.29-1.98l3.32-22.32Z"/>
                  <path class="cls-3" d="M272.68,15.02c.16-1.09-.61-1.98-1.71-1.98l-18.57.03c-1.1,0-1.87.89-1.71,1.98l3.31,22.29c.16,1.09,1.19,1.98,2.29,1.98h10.77c1.1,0,2.13-.89,2.29-1.98l3.32-22.32Z"/>
                </g>
                <rect class="cls-4" x="249.14" y="11.68" width="25.1" height="2.74" rx="1.37" ry="1.37" transform="translate(523.38 26.09) rotate(-180)"/>
              </g>
            </g>
          </g>
        </g>
        <g>
          <g>
            <g id="_Mirror_Repeat_-19" data-name="&amp;lt;Mirror Repeat&amp;gt;">
              <g class="cls-9">
                <g>
                  <g>
                    <path class="cls-42" d="M300.31,35.98c.16,1.09-.61,1.98-1.71,1.98l-18.57-.03c-1.1,0-1.87-.89-1.71-1.98l3.31-22.29c.16-1.09,1.19-1.98,2.29-1.98h10.77c1.1,0,2.13.89,2.29,1.98l3.32,22.32Z"/>
                    <path class="cls-3" d="M300.31,35.98c.16,1.09-.61,1.98-1.71,1.98l-18.57-.03c-1.1,0-1.87-.89-1.71-1.98l3.31-22.29c.16-1.09,1.19-1.98,2.29-1.98h10.77c1.1,0,2.13.89,2.29,1.98l3.32,22.32Z"/>
                  </g>
                  <rect class="cls-4" x="276.77" y="36.59" width="25.1" height="2.74" rx="1.37" ry="1.37" transform="translate(578.64 75.91) rotate(180)"/>
                </g>
              </g>
            </g>
            <g id="_Mirror_Repeat_-20" data-name="&amp;lt;Mirror Repeat&amp;gt;">
              <g class="cls-6">
                <g>
                  <g>
                    <path class="cls-42" d="M279.85,35.98c-.16,1.09.61,1.98,1.71,1.98l18.57-.03c1.1,0,1.87-.89,1.71-1.98l-3.31-22.29c-.16-1.09-1.19-1.98-2.29-1.98h-10.77c-1.1,0-2.13.89-2.29,1.98l-3.32,22.32Z"/>
                    <path class="cls-3" d="M279.85,35.98c-.16,1.09.61,1.98,1.71,1.98l18.57-.03c1.1,0,1.87-.89,1.71-1.98l-3.31-22.29c-.16-1.09-1.19-1.98-2.29-1.98h-10.77c-1.1,0-2.13.89-2.29,1.98l-3.32,22.32Z"/>
                  </g>
                  <rect class="cls-4" x="278.3" y="36.59" width="25.1" height="2.74" rx="1.37" ry="1.37"/>
                </g>
              </g>
            </g>
          </g>
          <line class="cls-2" x1="289.91" y1="39.82" x2="289.91" y2="11.18"/>
        </g>
      </g>
    </g>
  </g>
  <g>
    <line class="cls-2" x1="373.13" y1="11.18" x2="373.13" y2="39.82"/>
    <g>
      <g>
        <g id="_Mirror_Repeat_-21" data-name="&amp;lt;Mirror Repeat&amp;gt;">
          <g class="cls-27">
            <g>
              <g>
                <path class="cls-42" d="M362.73,15.02c-.16-1.09.61-1.98,1.71-1.98l18.57.03c1.1,0,1.87.89,1.71,1.98l-3.31,22.29c-.16,1.09-1.19,1.98-2.29,1.98h-10.77c-1.1,0-2.13-.89-2.29-1.98l-3.32-22.32Z"/>
                <path class="cls-3" d="M362.73,15.02c-.16-1.09.61-1.98,1.71-1.98l18.57.03c1.1,0,1.87.89,1.71,1.98l-3.31,22.29c-.16,1.09-1.19,1.98-2.29,1.98h-10.77c-1.1,0-2.13-.89-2.29-1.98l-3.32-22.32Z"/>
              </g>
              <rect class="cls-4" x="361.18" y="11.68" width="25.1" height="2.74" rx="1.37" ry="1.37"/>
            </g>
          </g>
        </g>
        <g id="_Mirror_Repeat_-22" data-name="&amp;lt;Mirror Repeat&amp;gt;">
          <g class="cls-28">
            <g>
              <g>
                <path class="cls-42" d="M383.19,15.02c.16-1.09-.61-1.98-1.71-1.98l-18.57.03c-1.1,0-1.87.89-1.71,1.98l3.31,22.29c.16,1.09,1.19,1.98,2.29,1.98h10.77c1.1,0,2.13-.89,2.29-1.98l3.32-22.32Z"/>
                <path class="cls-3" d="M383.19,15.02c.16-1.09-.61-1.98-1.71-1.98l-18.57.03c-1.1,0-1.87.89-1.71,1.98l3.31,22.29c.16,1.09,1.19,1.98,2.29,1.98h10.77c1.1,0,2.13-.89,2.29-1.98l3.32-22.32Z"/>
              </g>
              <rect class="cls-4" x="359.65" y="11.68" width="25.1" height="2.74" rx="1.37" ry="1.37" transform="translate(744.4 26.09) rotate(-180)"/>
            </g>
          </g>
        </g>
      </g>
      <g>
        <g>
          <g id="_Mirror_Repeat_-23" data-name="&amp;lt;Mirror Repeat&amp;gt;">
            <g class="cls-29">
              <g>
                <g>
                  <path class="cls-42" d="M410.82,35.98c.16,1.09-.61,1.98-1.71,1.98l-18.57-.03c-1.1,0-1.87-.89-1.71-1.98l3.31-22.29c.16-1.09,1.19-1.98,2.29-1.98h10.77c1.1,0,2.13.89,2.29,1.98l3.32,22.32Z"/>
                  <path class="cls-3" d="M410.82,35.98c.16,1.09-.61,1.98-1.71,1.98l-18.57-.03c-1.1,0-1.87-.89-1.71-1.98l3.31-22.29c.16-1.09,1.19-1.98,2.29-1.98h10.77c1.1,0,2.13.89,2.29,1.98l3.32,22.32Z"/>
                </g>
                <rect class="cls-4" x="387.28" y="36.59" width="25.1" height="2.74" rx="1.37" ry="1.37" transform="translate(799.65 75.91) rotate(180)"/>
              </g>
            </g>
          </g>
          <g id="_Mirror_Repeat_-24" data-name="&amp;lt;Mirror Repeat&amp;gt;">
            <g class="cls-30">
              <g>
                <g>
                  <path class="cls-42" d="M390.36,35.98c-.16,1.09.61,1.98,1.71,1.98l18.57-.03c1.1,0,1.87-.89,1.71-1.98l-3.31-22.29c-.16-1.09-1.19-1.98-2.29-1.98h-10.77c-1.1,0-2.13.89-2.29,1.98l-3.32,22.32Z"/>
                  <path class="cls-3" d="M390.36,35.98c-.16,1.09.61,1.98,1.71,1.98l18.57-.03c1.1,0,1.87-.89,1.71-1.98l-3.31-22.29c-.16-1.09-1.19-1.98-2.29-1.98h-10.77c-1.1,0-2.13.89-2.29,1.98l-3.32,22.32Z"/>
                </g>
                <rect class="cls-4" x="388.8" y="36.59" width="25.1" height="2.74" rx="1.37" ry="1.37"/>
              </g>
            </g>
          </g>
        </g>
        <line class="cls-2" x1="400.42" y1="39.82" x2="400.42" y2="11.18"/>
      </g>
    </g>
  </g>
  <g>
    <line class="cls-2" x1="428.39" y1="11.18" x2="428.39" y2="39.82"/>
    <g>
      <g>
        <g id="_Mirror_Repeat_-25" data-name="&amp;lt;Mirror Repeat&amp;gt;">
          <g class="cls-31">
            <g>
              <g>
                <path class="cls-42" d="M417.99,15.02c-.16-1.09.61-1.98,1.71-1.98l18.57.03c1.1,0,1.87.89,1.71,1.98l-3.31,22.29c-.16,1.09-1.19,1.98-2.29,1.98h-10.77c-1.1,0-2.13-.89-2.29-1.98l-3.32-22.32Z"/>
                <path class="cls-3" d="M417.99,15.02c-.16-1.09.61-1.98,1.71-1.98l18.57.03c1.1,0,1.87.89,1.71,1.98l-3.31,22.29c-.16,1.09-1.19,1.98-2.29,1.98h-10.77c-1.1,0-2.13-.89-2.29-1.98l-3.32-22.32Z"/>
              </g>
              <rect class="cls-4" x="416.43" y="11.68" width="25.1" height="2.74" rx="1.37" ry="1.37"/>
            </g>
          </g>
        </g>
        <g id="_Mirror_Repeat_-26" data-name="&amp;lt;Mirror Repeat&amp;gt;">
          <g class="cls-32">
            <g>
              <g>
                <path class="cls-42" d="M438.45,15.02c.16-1.09-.61-1.98-1.71-1.98l-18.57.03c-1.1,0-1.87.89-1.71,1.98l3.31,22.29c.16,1.09,1.19,1.98,2.29,1.98h10.77c1.1,0,2.13-.89,2.29-1.98l3.32-22.32Z"/>
                <path class="cls-3" d="M438.45,15.02c.16-1.09-.61-1.98-1.71-1.98l-18.57.03c-1.1,0-1.87.89-1.71,1.98l3.31,22.29c.16,1.09,1.19,1.98,2.29,1.98h10.77c1.1,0,2.13-.89,2.29-1.98l3.32-22.32Z"/>
              </g>
              <rect class="cls-4" x="414.9" y="11.68" width="25.1" height="2.74" rx="1.37" ry="1.37" transform="translate(854.91 26.09) rotate(180)"/>
            </g>
          </g>
        </g>
      </g>
      <g>
        <g>
          <g id="_Mirror_Repeat_-27" data-name="&amp;lt;Mirror Repeat&amp;gt;">
            <g class="cls-25">
              <g>
                <g>
                  <path class="cls-42" d="M466.07,35.98c.16,1.09-.61,1.98-1.71,1.98l-18.57-.03c-1.1,0-1.87-.89-1.71-1.98l3.31-22.29c.16-1.09,1.19-1.98,2.29-1.98h10.77c1.1,0,2.13.89,2.29,1.98l3.32,22.32Z"/>
                  <path class="cls-3" d="M466.07,35.98c.16,1.09-.61,1.98-1.71,1.98l-18.57-.03c-1.1,0-1.87-.89-1.71-1.98l3.31-22.29c.16-1.09,1.19-1.98,2.29-1.98h10.77c1.1,0,2.13.89,2.29,1.98l3.32,22.32Z"/>
                </g>
                <rect class="cls-4" x="442.53" y="36.59" width="25.1" height="2.74" rx="1.37" ry="1.37" transform="translate(910.16 75.91) rotate(180)"/>
              </g>
            </g>
          </g>
          <g id="_Mirror_Repeat_-28" data-name="&amp;lt;Mirror Repeat&amp;gt;">
            <g class="cls-23">
              <g>
                <g>
                  <path class="cls-42" d="M445.62,35.98c-.16,1.09.61,1.98,1.71,1.98l18.57-.03c1.1,0,1.87-.89,1.71-1.98l-3.31-22.29c-.16-1.09-1.19-1.98-2.29-1.98h-10.77c-1.1,0-2.13.89-2.29,1.98l-3.32,22.32Z"/>
                  <path class="cls-3" d="M445.62,35.98c-.16,1.09.61,1.98,1.71,1.98l18.57-.03c1.1,0,1.87-.89,1.71-1.98l-3.31-22.29c-.16-1.09-1.19-1.98-2.29-1.98h-10.77c-1.1,0-2.13.89-2.29,1.98l-3.32,22.32Z"/>
                </g>
                <rect class="cls-4" x="444.06" y="36.59" width="25.1" height="2.74" rx="1.37" ry="1.37"/>
              </g>
            </g>
          </g>
        </g>
        <line class="cls-2" x1="455.67" y1="39.82" x2="455.67" y2="11.18"/>
      </g>
    </g>
  </g>
  <g>
    <line class="cls-2" x1="317.88" y1="11.18" x2="317.88" y2="39.82"/>
    <g>
      <g>
        <g id="_Mirror_Repeat_-29" data-name="&amp;lt;Mirror Repeat&amp;gt;">
          <g class="cls-26">
            <g>
              <g>
                <path class="cls-42" d="M307.48,15.02c-.16-1.09.61-1.98,1.71-1.98l18.57.03c1.1,0,1.87.89,1.71,1.98l-3.31,22.29c-.16,1.09-1.19,1.98-2.29,1.98h-10.77c-1.1,0-2.13-.89-2.29-1.98l-3.32-22.32Z"/>
                <path class="cls-3" d="M307.48,15.02c-.16-1.09.61-1.98,1.71-1.98l18.57.03c1.1,0,1.87.89,1.71,1.98l-3.31,22.29c-.16,1.09-1.19,1.98-2.29,1.98h-10.77c-1.1,0-2.13-.89-2.29-1.98l-3.32-22.32Z"/>
              </g>
              <rect class="cls-4" x="305.92" y="11.68" width="25.1" height="2.74" rx="1.37" ry="1.37"/>
            </g>
          </g>
        </g>
        <g id="_Mirror_Repeat_-30" data-name="&amp;lt;Mirror Repeat&amp;gt;">
          <g class="cls-24">
            <g>
              <g>
                <path class="cls-42" d="M327.94,15.02c.16-1.09-.61-1.98-1.71-1.98l-18.57.03c-1.1,0-1.87.89-1.71,1.98l3.31,22.29c.16,1.09,1.19,1.98,2.29,1.98h10.77c1.1,0,2.13-.89,2.29-1.98l3.32-22.32Z"/>
                <path class="cls-3" d="M327.94,15.02c.16-1.09-.61-1.98-1.71-1.98l-18.57.03c-1.1,0-1.87.89-1.71,1.98l3.31,22.29c.16,1.09,1.19,1.98,2.29,1.98h10.77c1.1,0,2.13-.89,2.29-1.98l3.32-22.32Z"/>
              </g>
              <rect class="cls-4" x="304.4" y="11.68" width="25.1" height="2.74" rx="1.37" ry="1.37" transform="translate(633.89 26.09) rotate(180)"/>
            </g>
          </g>
        </g>
      </g>
      <g>
        <g>
          <g id="_Mirror_Repeat_-31" data-name="&amp;lt;Mirror Repeat&amp;gt;">
            <g class="cls-20">
              <g>
                <g>
                  <path class="cls-42" d="M355.57,35.98c.16,1.09-.61,1.98-1.71,1.98l-18.57-.03c-1.1,0-1.87-.89-1.71-1.98l3.31-22.29c.16-1.09,1.19-1.98,2.29-1.98h10.77c1.1,0,2.13.89,2.29,1.98l3.32,22.32Z"/>
                  <path class="cls-3" d="M355.57,35.98c.16,1.09-.61,1.98-1.71,1.98l-18.57-.03c-1.1,0-1.87-.89-1.71-1.98l3.31-22.29c.16-1.09,1.19-1.98,2.29-1.98h10.77c1.1,0,2.13.89,2.29,1.98l3.32,22.32Z"/>
                </g>
                <rect class="cls-4" x="332.02" y="36.59" width="25.1" height="2.74" rx="1.37" ry="1.37" transform="translate(689.15 75.91) rotate(180)"/>
              </g>
            </g>
          </g>
          <g id="_Mirror_Repeat_-32" data-name="&amp;lt;Mirror Repeat&amp;gt;">
            <g class="cls-15">
              <g>
                <g>
                  <path class="cls-42" d="M335.11,35.98c-.16,1.09.61,1.98,1.71,1.98l18.57-.03c1.1,0,1.87-.89,1.71-1.98l-3.31-22.29c-.16-1.09-1.19-1.98-2.29-1.98h-10.77c-1.1,0-2.13.89-2.29,1.98l-3.32,22.32Z"/>
                  <path class="cls-3" d="M335.11,35.98c-.16,1.09.61,1.98,1.71,1.98l18.57-.03c1.1,0,1.87-.89,1.71-1.98l-3.31-22.29c-.16-1.09-1.19-1.98-2.29-1.98h-10.77c-1.1,0-2.13.89-2.29,1.98l-3.32,22.32Z"/>
                </g>
                <rect class="cls-4" x="333.55" y="36.59" width="25.1" height="2.74" rx="1.37" ry="1.37"/>
              </g>
            </g>
          </g>
        </g>
        <line class="cls-2" x1="345.17" y1="39.82" x2="345.17" y2="11.18"/>
      </g>
    </g>
  </g>
  <g>
    <line class="cls-2" x1="483.64" y1="11.18" x2="483.64" y2="39.82"/>
    <g>
      <g>
        <g id="_Mirror_Repeat_-33" data-name="&amp;lt;Mirror Repeat&amp;gt;">
          <g class="cls-16">
            <g>
              <g>
                <path class="cls-42" d="M473.24,15.02c-.16-1.09.61-1.98,1.71-1.98l18.57.03c1.1,0,1.87.89,1.71,1.98l-3.31,22.29c-.16,1.09-1.19,1.98-2.29,1.98h-10.77c-1.1,0-2.13-.89-2.29-1.98l-3.32-22.32Z"/>
                <path class="cls-3" d="M473.24,15.02c-.16-1.09.61-1.98,1.71-1.98l18.57.03c1.1,0,1.87.89,1.71,1.98l-3.31,22.29c-.16,1.09-1.19,1.98-2.29,1.98h-10.77c-1.1,0-2.13-.89-2.29-1.98l-3.32-22.32Z"/>
              </g>
              <rect class="cls-4" x="471.68" y="11.68" width="25.1" height="2.74" rx="1.37" ry="1.37"/>
            </g>
          </g>
        </g>
        <g id="_Mirror_Repeat_-34" data-name="&amp;lt;Mirror Repeat&amp;gt;">
          <g class="cls-17">
            <g>
              <g>
                <path class="cls-42" d="M493.7,15.02c.16-1.09-.61-1.98-1.71-1.98l-18.57.03c-1.1,0-1.87.89-1.71,1.98l3.31,22.29c.16,1.09,1.19,1.98,2.29,1.98h10.77c1.1,0,2.13-.89,2.29-1.98l3.32-22.32Z"/>
                <path class="cls-3" d="M493.7,15.02c.16-1.09-.61-1.98-1.71-1.98l-18.57.03c-1.1,0-1.87.89-1.71,1.98l3.31,22.29c.16,1.09,1.19,1.98,2.29,1.98h10.77c1.1,0,2.13-.89,2.29-1.98l3.32-22.32Z"/>
              </g>
              <rect class="cls-4" x="470.16" y="11.68" width="25.1" height="2.74" rx="1.37" ry="1.37" transform="translate(965.42 26.09) rotate(-180)"/>
            </g>
          </g>
        </g>
      </g>
      <g>
        <g>
          <g id="_Mirror_Repeat_-35" data-name="&amp;lt;Mirror Repeat&amp;gt;">
            <g class="cls-18">
              <g>
                <g>
                  <path class="cls-42" d="M521.33,35.98c.16,1.09-.61,1.98-1.71,1.98l-18.57-.03c-1.1,0-1.87-.89-1.71-1.98l3.31-22.29c.16-1.09,1.19-1.98,2.29-1.98h10.77c1.1,0,2.13.89,2.29,1.98l3.32,22.32Z"/>
                  <path class="cls-3" d="M521.33,35.98c.16,1.09-.61,1.98-1.71,1.98l-18.57-.03c-1.1,0-1.87-.89-1.71-1.98l3.31-22.29c.16-1.09,1.19-1.98,2.29-1.98h10.77c1.1,0,2.13.89,2.29,1.98l3.32,22.32Z"/>
                </g>
                <rect class="cls-4" x="497.78" y="36.59" width="25.1" height="2.74" rx="1.37" ry="1.37" transform="translate(1020.67 75.91) rotate(180)"/>
              </g>
            </g>
          </g>
          <g id="_Mirror_Repeat_-36" data-name="&amp;lt;Mirror Repeat&amp;gt;">
            <g class="cls-19">
              <g>
                <g>
                  <path class="cls-42" d="M500.87,35.98c-.16,1.09.61,1.98,1.71,1.98l18.57-.03c1.1,0,1.87-.89,1.71-1.98l-3.31-22.29c-.16-1.09-1.19-1.98-2.29-1.98h-10.77c-1.1,0-2.13.89-2.29,1.98l-3.32,22.32Z"/>
                  <path class="cls-3" d="M500.87,35.98c-.16,1.09.61,1.98,1.71,1.98l18.57-.03c1.1,0,1.87-.89,1.71-1.98l-3.31-22.29c-.16-1.09-1.19-1.98-2.29-1.98h-10.77c-1.1,0-2.13.89-2.29,1.98l-3.32,22.32Z"/>
                </g>
                <rect class="cls-4" x="499.31" y="36.59" width="25.1" height="2.74" rx="1.37" ry="1.37"/>
              </g>
            </g>
          </g>
        </g>
        <line class="cls-2" x1="510.93" y1="39.82" x2="510.93" y2="11.18"/>
      </g>
    </g>
  </g>
  <g>
    <g id="_Mirror_Repeat_-37" data-name="&amp;lt;Mirror Repeat&amp;gt;">
      <g class="cls-21">
        <g>
          <g>
            <path class="cls-42" d="M24.04,35.98c.16,1.09-.61,1.98-1.71,1.98l-18.57-.03c-1.1,0-1.87-.89-1.71-1.98l3.31-22.29c.16-1.09,1.19-1.98,2.29-1.98h10.77c1.1,0,2.13.89,2.29,1.98l3.32,22.32Z"/>
            <path class="cls-3" d="M24.04,35.98c.16,1.09-.61,1.98-1.71,1.98l-18.57-.03c-1.1,0-1.87-.89-1.71-1.98l3.31-22.29c.16-1.09,1.19-1.98,2.29-1.98h10.77c1.1,0,2.13.89,2.29,1.98l3.32,22.32Z"/>
          </g>
          <rect class="cls-4" x=".5" y="36.59" width="25.1" height="2.74" rx="1.37" ry="1.37" transform="translate(26.1 75.91) rotate(180)"/>
        </g>
      </g>
    </g>
    <g id="_Mirror_Repeat_-38" data-name="&amp;lt;Mirror Repeat&amp;gt;">
      <g class="cls-22">
        <g>
          <g>
            <path class="cls-42" d="M3.58,35.98c-.16,1.09.61,1.98,1.71,1.98l18.57-.03c1.1,0,1.87-.89,1.71-1.98l-3.31-22.29c-.16-1.09-1.19-1.98-2.29-1.98h-10.77c-1.1,0-2.13.89-2.29,1.98l-3.32,22.32Z"/>
            <path class="cls-3" d="M3.58,35.98c-.16,1.09.61,1.98,1.71,1.98l18.57-.03c1.1,0,1.87-.89,1.71-1.98l-3.31-22.29c-.16-1.09-1.19-1.98-2.29-1.98h-10.77c-1.1,0-2.13.89-2.29,1.98l-3.32,22.32Z"/>
          </g>
          <rect class="cls-4" x="2.03" y="36.59" width="25.1" height="2.74" rx="1.37" ry="1.37"/>
        </g>
      </g>
    </g>
  </g>
</svg>