<?xml version="1.0" encoding="UTF-8"?>
<svg id="Layer_1" data-name="Layer 1" xmlns="http://www.w3.org/2000/svg" viewBox="0 0 26.82 23.68">
  <path d="M17.67,11.22h0s-.8,1.37-.53,1.63c.22.21,1.03-.43,1.22-.22.14.15-.24.5-.09.88.12.31.46.22.7.59.23.36.28.87.09,1.27-.1.23-.25.35-.53.59-.44.37-.78.54-1.04.69-.41.24-1.17.66-1.42,1.25-.4.95.59,1.58.34,2.43-.29.97-1.8.79-4.54,1.82-2.51.95-3.08,1.79-4.15,1.45-.94-.29-1.18-1.15-2.08-2.62-2.17-3.56-3.61-3.18-4.8-5.69-.24-.52-1.5-3.34-.38-6.44C1.76,5.25,5.27,4,5.99,3.74c.49-.18,3.76-1.34,5.92,0,.94.59,1.88,1.77,2.15,2.12.23.29.38.52.48.81.21.63,0,.89.17,1.31.05.13.19.37,1.38.94,1.17.56,1.79.68,1.79.95,0,.31-.83.46-.8.79.02.27.58.55.58.55Z"/>
  <path d="M26.3,3.54c.46.29.65.94.41,1.44l-.85,1.78c-.24.5-.87.79-1.4.64l-6.14-1.65c-.53-.14-.78-.67-.54-1.17l1.89-4.06c.23-.5.8-.67,1.27-.37l5.35,3.39Z"/>
</svg>